<svg xmlns="http://www.w3.org/2000/svg" viewBox="0 0 800 800" role="img" aria-labelledby="title desc">
  <title id="title">Kallahari Labs Logo</title>
  <desc id="desc">Monograma K dourado em círculo com texto KALLAHARI LABS abaixo.</desc>
  <rect width="800" height="800" fill="#050505"/>
  <g fill="none" stroke="#c9ad7a" stroke-width="10">
    <circle cx="400" cy="290" r="170"/>
    <circle cx="400" cy="290" r="184"/>
  </g>
  <g fill="#c9ad7a">
    <path d="M322 170h76v16h-10c-16 0-24 9-24 28v144c0 19 8 28 24 28h10v16h-76v-16h10c16 0 24-9 24-28V214c0-19-8-28-24-28h-10z"/>
    <path d="M386 314l132-144h74l-124 136 130 140h-82L406 324z"/>
    <rect x="286" y="442" width="228" height="10"/>
  </g>
  <g fill="#eceff5" font-family="Arial, Helvetica, sans-serif" text-anchor="middle" letter-spacing="14">
    <text x="400" y="590" font-size="62" font-weight="600">KALLAHARI</text>
    <text x="400" y="660" font-size="62" font-weight="700">LABS</text>
  </g>
  <g stroke="#c9ad7a" stroke-width="4">
    <line x1="170" y1="632" x2="280" y2="632"/>
    <line x1="520" y1="632" x2="630" y2="632"/>
  </g>
</svg>
